#!OML:ASF E:\Steps\Project 1\Capture day 1\Session 2\Subject.ASF
:FULLY-SPECIFIED
:DEGREES
523
root 3.93662 18.8786 9.38366 -154.508 -6.15056 176.574
lowerback -20.788 -2.62728 -5.71994
upperback 0.864211 -2.12627 -0.892372
thorax 12.8851 -1.39953 1.57266
lowerneck -1.98255 -1.51857 0.435759
upperneck 21.636 -4.8256 3.77844
head 7.01468 -2.67526 0.746008
rclavicle 1.22253e-014 3.37934e-014
rhumerus -42.7477 -11.6486 -78.8233
rradius 39.8684
rwrist -6.07542
rhand -8.99407 -51.5198
rfingers 7.12502
rthumb -163.048 -260.8
lclavicle 1.22253e-014 3.37934e-014
lhumerus -33.964 -4.85529 78.5485
lradius 30.1209
lwrist -1.66282
lhand -21.3321 -12.8086
lfingers 7.12502
lthumb 5.05368 17.1112
rfemur -32.1295 6.60524 18.8967
rtibia 14.6075
rfoot -16.2633 -4.6937
rtoes -6.46942
lfemur -40.5327 -16.1963 -19.173
ltibia 28.2362
lfoot -8.86485 -1.46357
ltoes -28.1411
524
root 3.94203 18.8736 9.34709 -154.557 -5.87705 176.633
lowerback -21.3998 -2.63931 -5.89783
upperback 0.763965 -2.0745 -0.869781
thorax 13.1233 -1.39666 1.6971
lowerneck -1.43134 -1.44036 0.478272
upperneck 21.9612 -4.84023 3.7181
head 7.02246 -2.72901 0.721648
rclavicle 1.15295e-014 -2.78299e-014
rhumerus -43.2117 -11.6547 -78.6746
rradius 39.9217
rwrist -6.05461
rhand -8.99453 -51.514
rfingers 7.12502
rthumb -163.048 -260.794
lclavicle 1.15295e-014 -2.78299e-014
lhumerus -34.7248 -4.74703 78.5494
lradius 30.4861
lwrist -1.67397
lhand -21.0066 -12.4025
lfingers 7.12502
lthumb 5.36797 17.5095
rfemur -31.903 6.78135 18.9717
rtibia 14.4688
rfoot -16.2488 -4.60373
rtoes -6.25141
lfemur -40.0602 -15.9355 -19.294
ltibia 27.6767
lfoot -8.19712 -1.62558
ltoes -28.478
525
root 3.94608 18.8698 9.31233 -154.646 -5.66924 176.612
lowerback -21.4523 -2.62081 -5.97162
upperback 0.772284 -2.02468 -0.905908
thorax 13.1606 -1.37902 1.71237
lowerneck -1.8905 -1.52492 0.611028
upperneck 22.1271 -4.92944 3.52764
head 7.15221 -2.75919 0.622168
rclavicle -8.64713e-015 -6.55989e-014
rhumerus -43.1104 -11.9668 -78.5638
rradius 39.7841
rwrist -5.80676
rhand -8.95102 -51.118
rfingers 7.12502
rthumb -163.006 -260.395
lclavicle -8.64713e-015 -6.55989e-014
lhumerus -34.482 -4.71933 78.503
lradius 30.2985
lwrist -1.62175
lhand -20.9151 -12.5489
lfingers 7.12502
lthumb 5.45633 17.3608
rfemur -31.6697 6.6924 19.0324
rtibia 14.4427
rfoot -16.1913 -4.25106
rtoes -5.50315
lfemur -39.4992 -15.7598 -19.5066
ltibia 27.0804
lfoot -7.15702 -1.81395
ltoes -26.334
526
root 3.95064 18.8656 9.27892 -154.803 -5.47292 176.608
lowerback -21.4553 -2.61356 -6.01574
upperback 0.738101 -2.00672 -0.923352
thorax 13.1218 -1.37339 1.72423
lowerneck -2.02492 -1.53747 0.554431
upperneck 22.1281 -4.92013 3.48018
head 7.17568 -2.75677 0.614761
rclavicle 8.24956e-015 2.98177e-014
rhumerus -43.1347 -12.1975 -78.424
rradius 39.6231
rwrist -5.60701
rhand -8.94138 -50.6719
rfingers 7.12502
rthumb -162.997 -259.948
lclavicle 8.24956e-015 2.98177e-014
lhumerus -34.2716 -4.40829 78.398
lradius 29.8368
lwrist -1.83964
lhand -21.0295 -13.2104
lfingers 7.12502
lthumb 5.34587 16.7022
rfemur -31.4232 6.5834 19.1325
rtibia 14.5319
rfoot -16.1246 -3.75384
rtoes -4.25887
lfemur -38.8139 -15.5983 -19.6868
ltibia 26.3239
lfoot -6.21116 -1.97228
ltoes -23.1005
527
root 3.95399 18.8621 9.24766 -154.932 -5.3131 176.681
lowerback -21.4986 -2.62029 -6.02268
upperback 0.644773 -2.02557 -0.883582
thorax 13.0408 -1.38367 1.76783
lowerneck -1.93911 -1.42425 0.369958
upperneck 22.1332 -4.76884 3.5564
head 7.16422 -2.69888 0.681891
rclavicle 2.38542e-015 -4.05521e-014
rhumerus -43.2742 -12.4614 -78.187
rradius 39.459
rwrist -5.40391
rhand -9.07744 -50.7647
rfingers 7.12502
rthumb -163.128 -260.052
lclavicle 2.38542e-015 -4.05521e-014
lhumerus -34.3051 -3.87693 78.2924
lradius 29.3562
lwrist -2.30248
lhand -21.2562 -13.6482
lfingers 7.12502
lthumb 5.12694 16.2698
rfemur -31.2551 6.67165 19.2697
rtibia 14.7191
rfoot -16.5336 -3.42208
rtoes -5.66111
lfemur -38.1951 -15.4807 -19.6939
ltibia 25.5997
lfoot -5.84757 -1.6396
ltoes -22.7434
528
root 3.95674 18.8596 9.21995 -155.02 -5.21289 176.775
lowerback -21.5328 -2.64288 -6.03231
upperback 0.534764 -2.07061 -0.806004
thorax 12.9393 -1.40699 1.84778
lowerneck -1.8979 -1.28109 0.230986
upperneck 22.2218 -4.5698 3.52864
head 7.18335 -2.6228 0.709209
rclavicle -1.99779e-014 1.07344e-014
rhumerus -43.3505 -12.6304 -77.9595
rradius 39.2605
rwrist -5.26914
rhand -9.31388 -51.3321
rfingers 7.12502
rthumb -163.356 -260.638
lclavicle -1.99779e-014 1.07344e-014
lhumerus -34.3635 -3.61252 78.3013
lradius 29.0971
lwrist -2.36045
lhand -21.262 -13.479
lfingers 7.12502
lthumb 5.12141 16.4391
rfemur -31.1557 6.67625 19.4421
rtibia 14.9133
rfoot -16.7301 -3.35652
rtoes -6.63173
lfemur -37.6702 -15.4383 -19.6009
ltibia 24.9636
lfoot -5.68708 -1.15913
ltoes -23.8404
529
root 3.96106 18.8563 9.19074 -155.114 -5.06655 176.831
lowerback -21.7195 -2.64156 -6.07951
upperback 0.535549 -2.04763 -0.782014
thorax 13.0476 -1.4033 1.90312
lowerneck -1.92756 -1.17925 0.146542
upperneck 22.1964 -4.42123 3.58837
head 7.17967 -2.55148 0.752857
rclavicle -8.84592e-015 -1.11319e-014
rhumerus -43.3205 -12.58 -77.9805
rradius 39.1855
rwrist -5.36417
rhand -9.57703 -51.8591
rfingers 7.12502
rthumb -163.609 -261.187
lclavicle -8.84592e-015 -1.11319e-014
lhumerus -34.3464 -3.55846 78.3236
lradius 29.127
lwrist -2.16976
lhand -21.0704 -13.1894
lfingers 7.12502
lthumb 5.30634 16.7242
rfemur -30.9843 6.66442 19.5624
rtibia 14.9295
rfoot -16.7277 -3.60781
rtoes -8.03376
lfemur -37.0677 -15.2685 -19.6014
ltibia 24.2294
lfoot -5.85207 -0.920189
ltoes -27.4625
